<?xml version="1.0" encoding="UTF-8" standalone="no"?>
<svg
   xmlns:dc="http://purl.org/dc/elements/1.1/"
   xmlns:cc="http://creativecommons.org/ns#"
   xmlns:rdf="http://www.w3.org/1999/02/22-rdf-syntax-ns#"
   xmlns:svg="http://www.w3.org/2000/svg"
   xmlns="http://www.w3.org/2000/svg"
   xmlns:sodipodi="http://sodipodi.sourceforge.net/DTD/sodipodi-0.dtd"
   xmlns:inkscape="http://www.inkscape.org/namespaces/inkscape"
   width="100"
   height="100"
   viewBox="0 0 26.458333 26.458334"
   version="1.1"
   id="svg2026"
   inkscape:version="1.0.1 (3bc2e813f5, 2020-09-07)"
   sodipodi:docname="merlin.svg">
  <defs
     id="defs2020" />
  <sodipodi:namedview
     id="base"
     pagecolor="#ffffff"
     bordercolor="#666666"
     borderopacity="1.0"
     inkscape:pageopacity="0.0"
     inkscape:pageshadow="2"
     inkscape:zoom="0.98994949"
     inkscape:cx="-143.24719"
     inkscape:cy="-90.473689"
     inkscape:document-units="mm"
     inkscape:current-layer="layer1"
     inkscape:document-rotation="0"
     showgrid="true"
     units="px"
     inkscape:snap-bbox="true"
     inkscape:bbox-paths="true"
     inkscape:bbox-nodes="true"
     inkscape:snap-bbox-edge-midpoints="true"
     inkscape:snap-bbox-midpoints="true"
     inkscape:window-width="1639"
     inkscape:window-height="1041"
     inkscape:window-x="26"
     inkscape:window-y="0"
     inkscape:window-maximized="0"
     inkscape:object-paths="true"
     inkscape:snap-intersection-paths="true"
     inkscape:snap-smooth-nodes="true"
     inkscape:snap-midpoints="true"
     inkscape:snap-object-midpoints="true"
     inkscape:snap-center="true">
    <inkscape:grid
       type="xygrid"
       id="grid2589" />
  </sodipodi:namedview>
  <metadata
     id="metadata2023">
    <rdf:RDF>
      <cc:Work
         rdf:about="">
        <dc:format>image/svg+xml</dc:format>
        <dc:type
           rdf:resource="http://purl.org/dc/dcmitype/StillImage" />
        <dc:title />
      </cc:Work>
    </rdf:RDF>
  </metadata>
  <g
     inkscape:label="レイヤー 1"
     inkscape:groupmode="layer"
     id="layer1">
    <path
       style="fill:#000000;fill-opacity:1;stroke:none;stroke-width:0.264583px;stroke-linecap:butt;stroke-linejoin:miter;stroke-opacity:1"
       d="m 13.229167,12.170833 -3.9687503,1.190626 3.9687503,1.190624 3.96875,-1.190624 -3.96875,-1.190626"
       id="path868"
       sodipodi:nodetypes="ccccc" />
    <path
       style="fill:none;fill-opacity:1;stroke:#000000;stroke-width:2.64583;stroke-linecap:butt;stroke-linejoin:miter;stroke-miterlimit:4;stroke-dasharray:none;stroke-opacity:1"
       id="path872"
       sodipodi:type="arc"
       sodipodi:cx="19.050001"
       sodipodi:cy="9.260417"
       sodipodi:rx="3.96875"
       sodipodi:ry="3.9687502"
       sodipodi:start="2.7552169"
       sodipodi:end="1.7530619"
       sodipodi:arc-type="arc"
       d="m 15.373824,10.755976 a 3.96875,3.9687502 0 0 1 1.315891,-4.6861746 3.96875,3.9687502 0 0 1 4.866111,0.1129836 3.96875,3.9687502 0 0 1 1.096979,4.742198 3.96875,3.9687502 0 0 1 -4.322172,2.238444"
       sodipodi:open="true" />
    <path
       style="fill:none;fill-opacity:1;stroke:#000000;stroke-width:2.64583;stroke-linecap:butt;stroke-linejoin:miter;stroke-miterlimit:4;stroke-dasharray:none;stroke-opacity:1"
       id="path872-4"
       sodipodi:type="arc"
       sodipodi:cx="-7.4083333"
       sodipodi:cy="9.260417"
       sodipodi:rx="3.96875"
       sodipodi:ry="3.9687502"
       sodipodi:start="2.7552169"
       sodipodi:end="1.7530619"
       sodipodi:arc-type="arc"
       d="m -11.084511,10.755976 a 3.96875,3.9687502 0 0 1 1.3158917,-4.6861746 3.96875,3.9687502 0 0 1 4.866111,0.1129836 3.96875,3.9687502 0 0 1 1.096979,4.742198 3.96875,3.9687502 0 0 1 -4.322172,2.238444"
       sodipodi:open="true"
       transform="scale(-1,1)" />
    <path
       style="fill:#000000;fill-opacity:1;stroke:none;stroke-width:0.264583px;stroke-linecap:butt;stroke-linejoin:miter;stroke-opacity:1"
       d="m 13.229168,10.583333 -1.322918,2.645834 1.322917,4.497916 1.322916,-4.497916 z"
       id="path892"
       sodipodi:nodetypes="ccccc" />
    <path
       style="fill:#000000;fill-opacity:1;stroke:none;stroke-width:0.264583px;stroke-linecap:butt;stroke-linejoin:miter;stroke-opacity:1"
       d="m 13.229168,14.948958 -1.058335,3.042709 1.058334,7.14375 1.058333,-7.14375 z"
       id="path892-1"
       sodipodi:nodetypes="ccccc" />
    <path
       style="fill:none;fill-opacity:1;stroke:#000000;stroke-width:1.85208;stroke-linecap:butt;stroke-linejoin:miter;stroke-miterlimit:4;stroke-dasharray:none;stroke-opacity:1"
       id="path872-4-8"
       sodipodi:type="arc"
       sodipodi:cx="-8.9958334"
       sodipodi:cy="16.933332"
       sodipodi:rx="2.1166663"
       sodipodi:ry="2.1166661"
       sodipodi:start="4.9550623"
       sodipodi:end="4.120708"
       sodipodi:arc-type="arc"
       d="m -8.4872017,14.878687 a 2.1166663,2.1166661 0 0 1 1.6068052,2.126777 2.1166663,2.1166661 0 0 1 -1.7479423,2.012388 2.1166663,2.1166661 0 0 1 -2.3307302,-1.29333 2.1166663,2.1166661 0 0 1 0.78265,-2.548031"
       transform="scale(-1,1)"
       sodipodi:open="true" />
    <path
       style="fill:none;fill-opacity:1;stroke:#000000;stroke-width:1.85208;stroke-linecap:butt;stroke-linejoin:miter;stroke-miterlimit:4;stroke-dasharray:none;stroke-opacity:1"
       id="path872-4-8-4"
       sodipodi:type="arc"
       sodipodi:cx="17.4625"
       sodipodi:cy="16.933332"
       sodipodi:rx="2.1166663"
       sodipodi:ry="2.1166661"
       sodipodi:start="4.9550623"
       sodipodi:end="4.120708"
       sodipodi:arc-type="arc"
       d="m 17.971131,14.878687 a 2.1166663,2.1166661 0 0 1 1.606806,2.126777 2.1166663,2.1166661 0 0 1 -1.747943,2.012388 2.1166663,2.1166661 0 0 1 -2.33073,-1.29333 2.1166663,2.1166661 0 0 1 0.78265,-2.548031"
       sodipodi:open="true"
       inkscape:transform-center-y="0.031010928" />
  </g>
</svg>
