<?xml version="1.0" encoding="UTF-8" standalone="no"?>
<svg
   xmlns:dc="http://purl.org/dc/elements/1.1/"
   xmlns:cc="http://creativecommons.org/ns#"
   xmlns:rdf="http://www.w3.org/1999/02/22-rdf-syntax-ns#"
   xmlns:svg="http://www.w3.org/2000/svg"
   xmlns="http://www.w3.org/2000/svg"
   xmlns:sodipodi="http://sodipodi.sourceforge.net/DTD/sodipodi-0.dtd"
   xmlns:inkscape="http://www.inkscape.org/namespaces/inkscape"
   width="100"
   height="100"
   viewBox="0 0 26.458333 26.458334"
   version="1.1"
   id="svg6095"
   inkscape:version="1.0.1 (3bc2e813f5, 2020-09-07)"
   sodipodi:docname="virgo.svg">
  <defs
     id="defs6089" />
  <sodipodi:namedview
     id="base"
     pagecolor="#ffffff"
     bordercolor="#666666"
     borderopacity="1.0"
     inkscape:pageopacity="0.0"
     inkscape:pageshadow="2"
     inkscape:zoom="5.6"
     inkscape:cx="94.578334"
     inkscape:cy="48.592745"
     inkscape:document-units="mm"
     inkscape:current-layer="layer1"
     inkscape:document-rotation="0"
     showgrid="true"
     units="px"
     inkscape:pagecheckerboard="true"
     inkscape:snap-bbox="true"
     inkscape:bbox-paths="true"
     inkscape:bbox-nodes="true"
     inkscape:snap-bbox-edge-midpoints="true"
     inkscape:snap-bbox-midpoints="true"
     inkscape:object-paths="true"
     inkscape:snap-intersection-paths="true"
     inkscape:snap-smooth-nodes="true"
     inkscape:snap-midpoints="true"
     inkscape:snap-object-midpoints="true"
     inkscape:window-width="1920"
     inkscape:window-height="1027"
     inkscape:window-x="-8"
     inkscape:window-y="-8"
     inkscape:window-maximized="1">
    <inkscape:grid
       type="xygrid"
       id="grid6658" />
  </sodipodi:namedview>
  <metadata
     id="metadata6092">
    <rdf:RDF>
      <cc:Work
         rdf:about="">
        <dc:format>image/svg+xml</dc:format>
        <dc:type
           rdf:resource="http://purl.org/dc/dcmitype/StillImage" />
        <dc:title />
      </cc:Work>
    </rdf:RDF>
  </metadata>
  <g
     inkscape:label="レイヤー 1"
     inkscape:groupmode="layer"
     id="layer1">
    <path
       style="fill:none;stroke:#000000;stroke-width:2.64583;stroke-linecap:butt;stroke-linejoin:miter;stroke-miterlimit:4;stroke-dasharray:none;stroke-opacity:1"
       d="m 2.6458333,3.9687501 c 0,0 2.645834,0 2.645834,2.6458332 V 18.520833 7.9375 c 0,-2.6458333 2.645833,-2.6458333 2.645833,-2.6458333 0,0 2.6458327,0 2.6458327,2.6458333 V 18.520833 7.9375 c 0,-2.6458333 2.645834,-2.6458333 2.645834,-2.6458333 0,0 2.645833,0 2.645833,2.6458333 v 11.90625 c 0,2.645833 1.322917,3.96875 1.322917,3.96875 0,0 -1.322917,-1.322917 -1.322917,-3.96875 v -9.260417 c 0,-2.645833 2.645833,-2.645833 2.645833,-2.645833 0,0 2.645832,0 2.645833,2.645833 l 1e-6,3.96875 c 1e-6,3.96875 -2.645833,5.291667 -3.968751,5.291667 h -3.968749"
       id="path832"
       sodipodi:nodetypes="cscscscscsscsscsssc" />
  </g>
</svg>
